<svg xmlns="http://www.w3.org/2000/svg" viewBox="0 0 300 300" role="img" aria-labelledby="title desc">
  <title id="title">BubbleFlow 汽泡音露</title>
  <desc id="desc">由两个青绿色气泡、一个四角星和右侧圆形气泡组成的标志</desc>

  <defs>
    <mask id="bubbleflow-cutout">
      <rect width="300" height="300" fill="#fff" />
      <path
        fill="#000"
        d="M75.5 139.1C89.8 135.5 99.5 141.3 110.2 148.5C122.7 156.9 132.7 160.9 146.3 160.7C155.3 160.6 162.5 156.7 168.9 153.1C172.2 168.6 167.6 190.5 151.2 211.5C133.8 208.2 114.2 198.9 98.7 184.2C84.1 170.3 74.1 152.2 75.5 139.1Z"
      />
    </mask>
  </defs>

  <g mask="url(#bubbleflow-cutout)">
    <path
      fill="#75AEB0"
      d="M75.5 139.1C72.8 109.9 84.7 82.3 108.6 64.7C128.6 50 155.7 43.2 181.2 45.3C207.3 47.5 230.8 59.7 238.4 80.3C244 95.5 236.9 107.2 227.8 119.3C222.4 126.5 220.5 134.4 220.5 145.5C220.5 159.2 221.7 176.1 215.6 188.5C207.6 204.8 189.1 213.7 160.2 215.5C152.4 216 146.3 214.5 141.9 211.1C154.8 199.5 164.6 187.6 168.9 175.3C173.4 162.7 169.4 154.3 158 151.3C145.4 148 131.9 152.4 121.2 153.4C104.2 154.9 94.4 137.6 75.5 139.1Z"
    />

    <path
      fill="#438E91"
      d="M75.5 139.1C89.9 135.4 99.3 140.5 109.8 147.5C122.3 155.8 132.5 160.2 146.5 161C158.3 161.7 168.3 158.5 170.4 160.7C172.8 163.2 171.5 173.9 168.2 182.2C161.9 198.1 149.3 214.6 135.1 225.8C118.1 239.1 96.8 244.8 77.4 241.3C54.5 237.2 39.5 221.8 36.8 200.6C34 179 43.8 159 60.8 147.2C65.8 143.7 70.7 141 75.5 139.1Z"
    />
  </g>

  <path
    fill="#F5F7F4"
    d="M190.6 72.2C192.2 89.7 195.3 96.2 210.2 99.4C195.4 102.6 192.2 109.2 190.6 126.8C188.9 109.2 185.8 102.6 170.9 99.4C185.8 96.2 188.9 89.7 190.6 72.2Z"
  />

  <path
    fill="#75AEB0"
    d="M255.8 124.7C270.2 124.7 280.4 136.3 279.2 152.9C278.1 168.9 268.6 181.3 256.4 181.3C244.2 181.3 235.6 170.1 234.6 154.1C233.5 136.8 242.1 124.7 255.8 124.7Z"
  />
</svg>
